<svg width="138" height="134" viewBox="0 0 138 134" fill="none" xmlns="http://www.w3.org/2000/svg">
<g clip-path="url(#clip0_0_1376)">
<path fill-rule="evenodd" clip-rule="evenodd" d="M69.0973 24.3241C71.4252 22.7338 73.6283 20.5267 75.9035 18.7236C73.5126 18.9389 70.2694 21.3542 69.0973 24.3241Z" fill="#322000"/>
<path fill-rule="evenodd" clip-rule="evenodd" d="M78.7174 21.4982C78.0798 21.3237 78.5002 21.2265 78.0128 20.8752C75.247 21.4673 71.8706 23.2603 70.3122 26.3851C72.7759 24.234 75.6291 22.5751 78.7174 21.4982Z" fill="#322000"/>
<path fill-rule="evenodd" clip-rule="evenodd" d="M75.1824 25.726C76.2199 25.3975 77.23 24.9879 78.2032 24.5008C78.0605 24.4085 78.1444 24.2603 77.9434 24.1659C75.9284 24.6841 73.8817 24.9197 72.1671 26.9427C73.3183 27.1518 74.2173 26.1495 75.1824 25.726Z" fill="#322000"/>
<path fill-rule="evenodd" clip-rule="evenodd" d="M31.7538 35.6007C31.5063 37.8231 32.7406 39.8729 33.4004 41.9083C33.6349 42.8613 33.932 43.7978 34.2898 44.7116C37.9566 52.315 49.931 56.0284 57.2679 58.3121C57.2254 59.3387 57.2522 60.367 57.3482 61.3899C51.7591 59.3323 46.2494 57.6119 41.0451 57.352C40.624 56.8768 40.0813 56.5255 39.4753 56.3358C37.3874 55.5679 31.8619 56.1722 30.6439 56.9681C30.1297 57.408 29.6866 57.9248 29.3304 58.5002C28.2408 59.1529 26.9879 59.0089 25.8647 59.4374C26.3454 61.3448 28.522 60.4666 29.6003 59.7947C32.7398 61.8272 35.9483 60.3304 39.0181 60.4832C42.4574 62.531 46.2424 62.4439 49.7517 63.298C45.4018 63.8842 41.1323 64.9607 37.0246 66.5069C35.0573 67.2824 32.4489 68.8459 32.6806 71.0091C30.6951 71.6655 27.7881 71.8683 26.2098 74.1225C25.1185 75.6794 23.6196 80.1293 23.9413 81.5646C24.1861 82.6402 25.3011 83.2549 24.9774 84.1413C24.6537 85.0277 22.7196 85.7888 22.8651 86.9075C24.7248 87.623 26.5946 85.3787 27.0395 83.4034C29.7838 81.225 31.5778 75.62 34.5164 72.8289C34.9133 73.1462 35.392 73.3446 35.8971 73.4011C40.7454 71.1195 45.7949 67.3123 50.6419 66.5785C47.7754 69.4133 45.3179 72.6336 43.34 76.1466C40.6494 80.8733 38.7554 86.0441 39.5762 90.5543C39.7054 91.2931 40.1389 91.9668 40.238 92.7338C40.6895 96.5999 39.8947 102.042 45.097 104.623C47.2693 105.684 49.0579 104.209 50.9644 103.656C53.1553 103.014 55.6711 102.808 57.7865 101.712C65.3504 97.7929 70.0765 87.2721 72.3237 79.4947C73.7174 84.9298 73.8453 90.6122 72.6975 96.1045C72.355 97.1433 72.2934 98.2542 72.519 99.3245C71.4678 103.028 68.8401 107.068 70.2197 110.237C69.7167 111.4 68.5615 111.713 68.3632 112.847C69.6035 114.317 71.2812 112.02 71.927 110.544C72.5352 110.482 73.1206 110.28 73.6367 109.952C74.1528 109.624 74.5853 109.181 74.8999 108.657C75.1825 108.22 75.1328 107.616 75.4336 107.096C75.6347 106.785 76.0521 106.472 76.1949 106.159C77.1836 103.988 76.1025 101.573 76.0041 99.8294C79.6695 93.5418 76.6567 87.3387 76.3117 81.9096C77.6385 85.0677 79.4573 88.0915 80.3613 91.369C80.6136 91.7706 80.8294 91.7316 81.2595 91.9505C81.5983 94.6475 81.9424 97.3362 84.8034 99.4861C85.0896 100.35 85.4987 102.092 86.9458 101.826C87.9239 100.72 86.4242 99.761 86.462 98.6538C86.469 98.1461 86.8617 97.6499 86.9196 97.2108C87.0237 96.0301 86.9327 94.8402 86.6502 93.689C86.2131 91.5755 85.1262 89.6515 83.5415 88.1862C83.3027 85.0773 81.6484 81.9098 79.8276 78.9442C78.1977 76.2842 76.1245 73.9227 73.6978 71.9621C74.7429 71.7095 75.7026 71.0918 76.757 70.9168C80.8642 74.7668 85.7187 80.3515 91.9851 83.479C97.5869 86.2715 103.122 86.1497 107.18 81.8678C110.022 81.9682 116.456 78.5807 115.338 74.915C109.104 71.0575 103.439 70.2019 97.4836 68.1215C92.2387 66.2866 87.1923 64.3659 81.8787 62.7844C82.1272 62.2901 81.9164 61.8796 82.1565 61.3799C83.7091 61.3552 85.2559 61.1839 86.7762 60.8683C88.973 60.4559 91.3737 60.3541 92.9167 57.5291C93.9127 55.6961 95.5878 53.8262 96.5735 51.641C96.9209 50.8652 96.7082 49.9056 96.9795 49.0449C97.2508 48.1841 98.1009 47.6623 97.8443 46.7338C96.9629 46.1632 96.0929 47.4702 95.8631 48.3221C93.3201 48.7725 90.1322 53.2368 90.2635 55.9783C87.3119 55.6452 84.3446 56.4511 81.967 58.2315C81.5956 57.6628 81.301 57.0474 81.0908 56.4015C85.7723 53.4759 85.0245 47.1785 83.144 43.9003C85.416 43.2982 87.9501 42.6039 90.6095 43.17C92.5873 43.5927 94.6868 45.4283 95.6064 43.0693C94.5677 41.1222 93.1793 42.0341 92.1175 42.0734C90.626 42.1323 87.6431 41.8453 85.7491 42.0844C84.5529 42.2392 82.8449 43.111 82.0568 42.8748C80.8454 42.5194 80.1903 41.4521 79.0732 41.0982C80.6466 36.8276 80.3315 32.3827 76.3278 29.6241C75.9487 29.731 75.6215 29.9724 75.4075 30.303C75.1934 30.6336 75.1072 31.031 75.1649 31.4206C75.4546 32.3348 76.2962 32.01 76.9144 32.3983C80.092 34.372 78.7154 37.6025 78.0283 40.7434C75.0023 41.167 70.0662 40.4375 68.0533 44.6141C67.5192 45.8669 67.3456 47.244 67.5522 48.5901C67.0466 48.3224 66.1965 48.8442 65.9926 48.5335C66.5212 44.9655 66.3998 41.3314 65.6344 37.8067C67.3004 36.7052 70.8346 36.3247 71.9838 34.1263C72.1779 33.4925 72.3295 32.8464 72.4376 32.1924C72.6209 31.5964 73.1134 30.8907 72.7061 30.3054C72.2783 30.3941 71.8814 30.5939 71.5552 30.8845C71.2291 31.1752 70.9851 31.5466 70.8479 31.9614C70.3772 31.8235 70.031 32.064 69.548 32.2397C68.1073 32.7723 63.5222 35.0337 62.6556 36.9981C62.4643 37.4223 62.6913 38.2125 62.6428 38.7291C62.3597 40.1192 62.241 41.5377 62.2893 42.9555C62.5035 45.2207 63.0425 47.4432 63.89 49.5548C63.2544 49.7271 62.7194 50.3695 62.0132 50.2459C53.9508 43.3231 44.3438 33.542 34.8387 27.4126C34.1503 26.967 32.2601 27.8995 31.8556 28.3405C29.3758 31.0117 31.05 33.394 31.7538 35.6007Z" fill="#322000"/>
<path fill-rule="evenodd" clip-rule="evenodd" d="M119.361 77.0549L119.026 76.8375C117.289 78.6916 115.238 81.2351 113.788 82.9771C115.949 82.7316 118.331 79.604 119.361 77.0549Z" fill="#322000"/>
<path fill-rule="evenodd" clip-rule="evenodd" d="M121.144 79.4717L120.834 79.2707C119.386 80.7159 117.505 82.3695 116.372 83.6967C118.133 83.6453 120.461 81.6861 121.144 79.4717Z" fill="#322000"/>
<path fill-rule="evenodd" clip-rule="evenodd" d="M121.814 81.8591C120.573 82.9493 119.242 83.6606 117.966 84.6209C118.4 84.6936 118.844 84.6798 119.273 84.5801C119.702 84.4805 120.107 84.2971 120.464 84.0404C120.822 83.7837 121.126 83.4589 121.357 83.0845C121.589 82.7102 121.744 82.2937 121.814 81.8591Z" fill="#322000"/>
<path fill-rule="evenodd" clip-rule="evenodd" d="M28.5144 33.9802C28.3858 34.0816 28.2325 34.1469 28.0704 34.1693C27.6088 35.7026 27.5317 37.3258 27.8456 38.896C28.081 39.8942 28.6673 41.6198 30.0971 41.3065C29.0041 39.0217 28.462 36.5125 28.5144 33.9802Z" fill="#322000"/>
<path fill-rule="evenodd" clip-rule="evenodd" d="M27.5982 41.1184C27.886 39.22 26.8824 37.6053 26.7499 35.8042L26.5233 35.6575C25.578 37.7616 26.4913 39.4607 27.5982 41.1184Z" fill="#322000"/>
<path fill-rule="evenodd" clip-rule="evenodd" d="M26.4891 42.9972C25.846 41.1752 25.3965 39.3118 24.6427 37.5135C23.1079 39.2955 24.6595 42.2536 26.4891 42.9972Z" fill="#322000"/>
<path fill-rule="evenodd" clip-rule="evenodd" d="M70.8644 33.3897C69.3577 35.4043 67.4035 35.2948 65.7211 36.4214C66.9507 35.0374 68.9339 33.1883 70.8644 33.3897Z" fill="url(#paint0_linear_0_1376)"/>
<path fill-rule="evenodd" clip-rule="evenodd" d="M95.6805 49.8002C95.7537 51.5273 93.3915 54.2746 92.2119 55.6552C92.8405 53.7273 93.6748 50.5983 95.6805 49.8002Z" fill="url(#paint1_linear_0_1376)"/>
<path fill-rule="evenodd" clip-rule="evenodd" d="M64.7276 47.2857C63.5404 44.6112 63.7499 41.6377 63.7659 38.7056C64.0701 38.6405 64.3532 38.4425 64.7255 38.6954C65.0235 41.5511 65.0242 44.4299 64.7276 47.2857Z" fill="url(#paint2_linear_0_1376)"/>
<path fill-rule="evenodd" clip-rule="evenodd" d="M113.801 76.3144C112.582 77.5748 111.189 78.6546 109.664 79.5212C103.832 82.2737 95.2936 81.1656 87.7021 75.6317C84.5729 73.3439 81.7126 70.4202 78.6457 68.0178C78.1421 67.6918 77.5293 67.2951 77.0375 66.8218C76.7397 66.5457 75.9294 66.1045 76.1676 65.4606C76.6364 64.8468 77.052 65.8425 77.2456 66.0036C81.1281 69.1367 85.2223 71.9981 89.499 74.5673C89.0267 73.0703 86.9576 72.255 85.4979 71.179C82.729 69.2991 80.0713 67.2604 77.5381 65.0732C82.9483 68.1113 88.6779 70.542 94.6223 72.3208C89.8353 69.889 84.9944 67.9822 79.4949 64.7556C78.9073 64.3752 77.5398 63.9664 77.3711 63.3807C77.8798 63.0548 78.667 63.4214 79.1489 63.5786C83.8043 65.0913 88.6522 66.693 93.4961 68.4112C100.027 70.7446 106.235 72.6552 112.802 75.6677C113.207 75.7448 113.565 75.9769 113.801 76.3144Z" fill="url(#paint3_linear_0_1376)"/>
<path fill-rule="evenodd" clip-rule="evenodd" d="M80.1952 62.1831C78.996 61.8646 77.7805 61.6106 76.5541 61.4223C75.8789 64.2134 71.6474 66.7752 74.9534 68.8082C72.0373 70.3869 68.5088 71.605 64.4761 68.5417C61.0655 65.9526 58.4068 62.5518 59.3523 59.0302C60.2853 58.8956 61.3746 59.4579 62.3549 59.5445C63.6141 57.7227 65.0387 56.021 66.6107 54.4611C66.1407 53.3468 64.4712 52.54 63.7637 51.4983C66.541 49.9131 69.8492 50.6728 73.2768 52.2604C73.943 52.501 72.8944 53.1087 73.3339 53.4051C73.7733 53.7016 74.1764 53.1525 74.5869 52.9417C78.8312 54.8316 81.2035 58.583 80.1952 62.1831ZM75.2478 54.8467C74.4064 54.159 73.7531 55.9042 74.1224 56.3458C74.7304 56.382 75.2639 55.4289 75.2478 54.8467ZM76.9271 58.6379C77.4566 58.2064 77.8875 57.0439 76.969 56.6042C76.2241 57.1107 76.2234 58.4921 76.9271 58.6379ZM67.0436 53.0379C67.5824 53.0888 68.1757 52.2459 68.3249 51.7946C67.77 51.1613 66.7266 52.5706 67.0436 53.0379ZM70.4483 55.3968C71.228 56.0326 71.9903 54.763 71.9094 54.115C71.147 53.5262 70.679 54.8195 70.4483 55.3968ZM68.3774 53.4248C68.4095 53.7434 68.3086 54.0831 68.761 54.3045C69.2133 54.5258 69.4267 54.1041 69.6728 53.632C69.6567 53.4838 69.5923 53.345 69.4895 53.2369C69.3868 53.1289 69.2514 53.0576 69.1042 53.0341C68.957 53.0105 68.8061 53.036 68.6748 53.1066C68.5434 53.1772 68.439 53.2891 68.3774 53.4248ZM77.0557 60.1507C77.6936 60.5637 78.1643 60.4991 78.5299 59.8423C78.1947 59.0535 77.1111 59.5314 77.0557 60.1507ZM72.1466 57.9257C73.8447 57.1428 72.157 55.6095 71.399 57.6085C71.6859 57.9014 71.878 57.7518 72.1466 57.9257ZM74.3685 57.9346C73.5615 58.1507 73.5103 59.4995 74.3128 59.9713C74.468 59.8527 74.5947 59.7009 74.6837 59.527C74.7726 59.3531 74.8215 59.1615 74.8269 58.9663C74.8322 58.771 74.7938 58.577 74.7145 58.3985C74.6352 58.22 74.517 58.0615 74.3685 57.9346ZM67.8048 57.0329C68.5603 57.522 69.1437 56.9704 69.687 56.3335C69.142 55.4088 67.68 56.2135 67.7964 57.0275L67.8048 57.0329ZM70.3024 61.0323C71.0243 61.4996 71.9097 59.6903 71.8387 59.1559L71.5029 58.9385C70.8925 59.127 70.0032 60.4455 70.294 61.0268L70.3024 61.0323ZM71.5943 63.4529C72.0744 63.6476 72.6112 63.6483 73.0918 63.4551C73.5724 63.2618 73.9593 62.8897 74.171 62.4169C73.1241 61.9179 72.3639 62.7242 71.5859 63.4475L71.5943 63.4529ZM69.1189 59.6585C68.0077 59.5348 66.9849 61.8509 68.5192 62.2962C68.9313 62.0114 69.2215 61.5825 69.3326 61.0941C69.4436 60.6057 69.3673 60.0934 69.1189 59.6585ZM64.854 59.1252C64.598 59.6862 65.3524 61.1156 66.3447 60.2452C66.8359 59.0264 65.4597 57.7663 64.8703 59.1001L64.854 59.1252ZM69.9105 66.5323C70.7772 67.0338 72.0154 66.7037 71.9341 65.6147C71.0917 65.0574 70.4752 65.6232 69.9268 66.5071L69.9105 66.5323ZM63.6876 63.1352C64.3756 62.9373 64.3363 61.8755 64.7982 61.1619C63.9124 60.4693 62.5158 62.6267 63.7039 63.11L63.6876 63.1352ZM66.7904 65.942C67.2883 65.8354 67.6475 65.115 68.0333 64.5189C67.8495 62.6131 65.4236 65.1644 66.8067 65.9168L66.7904 65.942ZM61.163 63.0971C61.7064 62.2576 61.3174 61.5889 61.725 60.7568L61.3892 60.5394C60.1767 60.9219 60.4904 62.7927 61.1793 63.0719L61.163 63.0971ZM68.976 69.4296C69.4355 69.7148 69.9843 69.8199 70.5166 69.7246C71.049 69.6294 71.5272 69.3405 71.8593 68.9137C71.1123 68.025 69.3916 68.5669 69.0007 69.4099L68.976 69.4296ZM65.8136 68.1686C66.0138 68.2292 66.2247 68.2463 66.432 68.2188C66.6394 68.1914 66.8385 68.12 67.0161 68.0094C67.1937 67.8989 67.3456 67.7517 67.4617 67.5777C67.5779 67.4037 67.6555 67.2069 67.6895 67.0005C66.9158 66.3924 65.7273 67.3266 65.8383 68.1489L65.8136 68.1686Z" fill="url(#paint4_linear_0_1376)"/>
<path fill-rule="evenodd" clip-rule="evenodd" d="M62.7787 52.5046C56.9414 49.1189 52.2822 44.6494 46.6011 40.9121C50.92 45.6497 57.8261 50.7518 63.8815 54.4813C63.3435 55.5149 62.2918 54.4528 61.6972 54.1751C56.8761 51.888 50.6182 47.956 45.5908 45.1779C50.1191 49.4079 57.0932 52.9696 62.5266 55.8199C58.2602 55.1784 53.5932 52.8005 48.5672 50.1306C42.7477 47.0303 37.5874 44.2734 34.8015 39.468C34.2305 38.3899 33.7353 37.2733 33.3197 36.1262C32.8117 35.0608 32.4111 33.9475 32.1237 32.8027C31.8788 30.4761 33.4942 28.0911 36.0423 29.4547C37.2838 30.342 38.4594 31.318 39.56 32.3752C47.8506 38.7429 54.5339 46.25 62.7787 52.5046ZM40.2474 35.0121C39.8511 34.516 39.3691 34.0951 38.8243 33.7692C38.4794 34.3203 39.6704 35.6273 40.2474 35.0121ZM38.272 39.2964C39.0614 40.2483 39.9906 41.6836 41.4978 42.1709C40.7537 41.2961 39.3703 39.4952 38.2754 39.3463L38.272 39.2964Z" fill="url(#paint5_linear_0_1376)"/>
<path fill-rule="evenodd" clip-rule="evenodd" d="M105.406 82.1607C96.7615 89.2394 82.6221 75.75 76.0174 67.9005C77.7584 69.0839 79.3989 70.4088 80.9221 71.8619C84.2698 75.025 87.9683 77.7949 91.9454 80.1177C96.637 82.6784 101.37 82.5258 105.406 82.1607Z" fill="url(#paint6_linear_0_1376)"/>
<path fill-rule="evenodd" clip-rule="evenodd" d="M72.3771 72.5486C76.5524 76.5142 79.9808 81.0447 81.658 85.7041C82.0735 86.9024 83.098 88.6138 81.7154 89.5534C80.8291 88.2941 80.1147 86.9223 79.5912 85.4741C78.3991 82.5985 77.0273 79.8007 75.484 77.0972C74.6275 75.697 73.4084 74.5623 72.5039 73.1072C72.3706 72.8898 72.1084 72.9821 72.3771 72.5486Z" fill="url(#paint7_linear_0_1376)"/>
<path fill-rule="evenodd" clip-rule="evenodd" d="M56.5879 62.8037C51.2113 61.9081 46.047 61.9362 40.4125 59.8015C42.5037 58.5583 45.368 59.5072 48.0056 60.1068C50.9676 60.6445 53.8507 61.5505 56.5879 62.8037Z" fill="url(#paint8_linear_0_1376)"/>
<path fill-rule="evenodd" clip-rule="evenodd" d="M70.2838 74.0524C66.0816 73.6431 60.2003 70.2885 56.4571 66.6859C59.4094 64.7017 61.9784 69.6765 65.2563 71.2743C67.2247 72.2269 69.8867 71.7583 70.2838 74.0524Z" fill="url(#paint9_linear_0_1376)"/>
<path fill-rule="evenodd" clip-rule="evenodd" d="M70.4597 78.4549C64.9569 79.0977 56.6168 73.1745 52.5953 68.4746C53.4014 67.8186 54.2914 67.273 55.2417 66.8523C58.3725 70.9041 65.4952 74.5859 69.7877 75.3158C71.1389 75.5472 70.4999 77.3255 70.4597 78.4549Z" fill="#0B0B0B"/>
<path fill-rule="evenodd" clip-rule="evenodd" d="M73.9786 98.5419C73.4118 97.8534 73.9538 96.9058 74.0581 96.2109C74.8717 90.9243 75.2828 85.2103 73.9203 80.2304C73.8112 80.1598 73.9149 80.0363 73.9495 79.9277C73.9841 79.819 74.1377 79.8946 74.2468 79.9653C74.3559 80.0359 74.2853 80.1451 74.4028 80.2211C75.9244 84.9408 76.5905 89.8944 76.3697 94.8483C76.3245 96.0223 76.1619 99.181 73.9786 98.5419Z" fill="url(#paint10_linear_0_1376)"/>
<path fill-rule="evenodd" clip-rule="evenodd" d="M39.0265 58.4278C36.4454 59.1394 33.3645 59.8133 30.7097 58.7618C33.2124 57.5825 36.2706 56.6675 39.0265 58.4278Z" fill="url(#paint11_linear_0_1376)"/>
<path fill-rule="evenodd" clip-rule="evenodd" d="M68.8678 83.6188C62.2374 82.7097 53.2222 76.5043 49.8528 70.9995C50.3285 70.2278 50.9328 69.5432 51.6395 68.9755C55.1715 74.1925 64.3837 80.2038 70.1818 79.8593C69.9809 81.1832 69.5353 82.4581 68.8678 83.6188Z" fill="url(#paint12_linear_0_1376)"/>
<path fill-rule="evenodd" clip-rule="evenodd" d="M83.1944 90.2129L83.4126 90.3542C84.8493 92.404 85.9561 94.8716 84.9604 97.5506C83.2081 95.3442 81.9483 93.0395 83.1944 90.2129Z" fill="url(#paint13_linear_0_1376)"/>
<path fill-rule="evenodd" clip-rule="evenodd" d="M49.1676 71.8186C52.5128 77.3793 61.7042 83.9012 68.4285 84.7758C68.0568 86.0124 67.2703 87.3378 66.7466 88.6069C59.4957 85.9143 52.1661 79.847 46.9085 74.8115C47.6101 73.776 48.3641 72.7771 49.1676 71.8186Z" fill="#0B0B0B"/>
<path fill-rule="evenodd" clip-rule="evenodd" d="M46.2509 75.8273C50.9904 81.1112 59.2544 87.3544 66.1981 89.6933C65.6697 90.6753 65.0627 91.613 64.3831 92.4971C57.7253 90.1765 48.8409 84.4132 44.1864 79.2557C44.9141 78.0948 45.382 77.004 46.2509 75.8273Z" fill="url(#paint14_linear_0_1376)"/>
<path fill-rule="evenodd" clip-rule="evenodd" d="M32.5918 72.8575C29.8009 75.4942 28.7131 81.4253 25.5686 81.4982C25.6184 77.5754 28.6878 72.5579 32.5918 72.8575Z" fill="url(#paint15_linear_0_1376)"/>
<path fill-rule="evenodd" clip-rule="evenodd" d="M72.1609 108.968C69.7729 107.136 73.0768 103.247 73.5302 100.468C73.9726 100.424 74.4187 100.496 74.8256 100.675C75.268 103.248 75.2007 106.481 72.1609 108.968Z" fill="url(#paint16_linear_0_1376)"/>
<path fill-rule="evenodd" clip-rule="evenodd" d="M63.1447 93.4346C63.4098 94.166 62.0333 94.7283 61.6608 95.4877C55.3607 94.8044 46.0045 89.8434 41.8523 84.094C42.0022 83.0712 42.965 81.86 43.3637 80.7839C49.0759 86.242 55.794 90.5385 63.1447 93.4346Z" fill="#0B0B0B"/>
<path fill-rule="evenodd" clip-rule="evenodd" d="M59.9646 96.6173C59.6887 97.761 57.6647 98.4402 56.6744 99.2524C54.0466 98.7993 51.524 97.8687 49.2314 96.5069C46.2489 94.8024 42.3637 92.192 41.3715 89.9891C40.6908 88.4644 41.4373 87.0536 41.3892 85.5453C45.2903 90.1554 53.9904 96.0377 59.9646 96.6173Z" fill="url(#paint17_linear_0_1376)"/>
<path fill-rule="evenodd" clip-rule="evenodd" d="M69.5015 48.7441C72.0864 48.7259 75.6444 45.3827 75.3379 42.1942C77.2893 41.6825 81.8354 43.5296 82.1233 45.9555C80.933 46.6605 79.975 47.6984 79.3673 48.9412C78.7596 50.184 78.5288 51.5775 78.7032 52.9499C78.8093 53.4116 79.4513 53.9106 79.0492 54.1268C76.6916 51.457 72.4165 49.7616 69.5015 48.7441Z" fill="#0B0B0B"/>
<path fill-rule="evenodd" clip-rule="evenodd" d="M69.2262 47.458C69.1256 47.1655 69.0911 46.8543 69.1253 46.5469C69.1596 46.2394 69.2616 45.9434 69.4241 45.6802C69.7179 45.8704 70.0621 46.0932 70.2809 46.068C70.8685 46.4484 73.1106 44.4571 72.8191 44.8522C71.8468 46.7958 70.5217 47.0578 69.2262 47.458Z" fill="url(#paint18_linear_0_1376)"/>
<path fill-rule="evenodd" clip-rule="evenodd" d="M90.8929 57.1958C90.5705 58.7978 88.641 59.0735 87.4137 59.3868C86.0434 59.6383 84.6589 59.8042 83.268 59.8837C84.5553 58.4656 86.9052 58.2953 88.7894 57.7401C89.505 57.5363 90.2198 56.8554 90.8929 57.1958Z" fill="url(#paint19_linear_0_1376)"/>
<path fill-rule="evenodd" clip-rule="evenodd" d="M80.1166 51.0059C80.5699 51.2993 80.7227 52.9587 82.1114 53.0953C81.9049 53.4143 81.6974 53.8637 81.4124 53.9175C80.0485 53.1537 80.2582 52.0386 80.1166 51.0059Z" fill="url(#paint20_linear_0_1376)"/>
<path fill-rule="evenodd" clip-rule="evenodd" d="M35.1047 42.4041C40.0445 48.3537 52.389 53.5933 59.8407 56.9878L60.1009 57.1562C55.5231 55.8366 48.556 54.233 43.2214 51.3038C39.5349 49.4082 36.6537 46.2491 35.1047 42.4041Z" fill="url(#paint21_linear_0_1376)"/>
<path fill-rule="evenodd" clip-rule="evenodd" d="M50.9574 64.8767C48.3335 65.5198 45.7796 66.4201 43.3325 67.5646C40.7715 68.9444 38.5067 70.8972 35.8777 71.9589C35.3297 71.5674 34.8154 71.1309 34.3401 70.6538C36.5398 67.7894 40.2292 66.7827 43.1279 66.1694C45.7045 65.5571 48.3207 65.1252 50.9574 64.8767Z" fill="url(#paint22_linear_0_1376)"/>
<path fill-rule="evenodd" clip-rule="evenodd" d="M54.5041 100.397C52.7518 100.656 50.0198 102.723 47.8764 102.777C47.064 102.799 46.3787 102.165 45.6546 102.768C44.7097 102.308 43.906 101.603 43.3276 100.725C42.7492 99.8477 42.4174 98.8309 42.367 97.7812C43.9115 99.1861 46.2905 101.179 48.3019 101.623C46.6628 99.3709 43.1151 98.3369 42.0117 96.1217C41.3646 94.8212 42.2483 93.7137 41.7039 92.4201C44.5228 95.1503 50.5099 99.5742 54.5041 100.397Z" fill="#0B0B0B"/>
</g>
<defs>
<linearGradient id="paint0_linear_0_1376" x1="69.7437" y1="32.6642" x2="66.8418" y2="37.1469" gradientUnits="userSpaceOnUse">
<stop stop-color="#FFBA41"/>
<stop offset="1" stop-color="#694402" stop-opacity="0.75"/>
</linearGradient>
<linearGradient id="paint1_linear_0_1376" x1="95.6809" y1="49.8004" x2="91.9855" y2="55.5087" gradientUnits="userSpaceOnUse">
<stop stop-color="#FFBA41"/>
<stop offset="1" stop-color="#694402" stop-opacity="0.75"/>
</linearGradient>
<linearGradient id="paint2_linear_0_1376" x1="66.3499" y1="39.7468" x2="62.4317" y2="45.7994" gradientUnits="userSpaceOnUse">
<stop stop-color="#FFBA41"/>
<stop offset="1" stop-color="#694402" stop-opacity="0.75"/>
</linearGradient>
<linearGradient id="paint3_linear_0_1376" x1="98.0785" y1="65.9975" x2="90.5928" y2="77.5609" gradientUnits="userSpaceOnUse">
<stop stop-color="#FFBA41"/>
<stop offset="1" stop-color="#694402" stop-opacity="0.75"/>
</linearGradient>
<linearGradient id="paint4_linear_0_1376" x1="74.6114" y1="52.7751" x2="64.4077" y2="68.537" gradientUnits="userSpaceOnUse">
<stop offset="0.161458" stop-color="#FFF9C0"/>
<stop offset="0.65625" stop-color="#FFBA41"/>
</linearGradient>
<linearGradient id="paint5_linear_0_1376" x1="50.5473" y1="38.8447" x2="44.5691" y2="48.0795" gradientUnits="userSpaceOnUse">
<stop stop-color="#FFBA41"/>
<stop offset="1" stop-color="#694402" stop-opacity="0.75"/>
</linearGradient>
<linearGradient id="paint6_linear_0_1376" x1="91.7986" y1="73.3517" x2="87.9316" y2="79.3252" gradientUnits="userSpaceOnUse">
<stop stop-color="#FFBA41"/>
<stop offset="1" stop-color="#694402" stop-opacity="0.75"/>
</linearGradient>
<linearGradient id="paint7_linear_0_1376" x1="79.6043" y1="77.2272" x2="74.6047" y2="84.9502" gradientUnits="userSpaceOnUse">
<stop stop-color="#FFBA41"/>
<stop offset="1" stop-color="#694402" stop-opacity="0.75"/>
</linearGradient>
<linearGradient id="paint8_linear_0_1376" x1="50.2038" y1="58.6709" x2="46.7965" y2="63.9342" gradientUnits="userSpaceOnUse">
<stop stop-color="#FFBA41"/>
<stop offset="1" stop-color="#694402" stop-opacity="0.75"/>
</linearGradient>
<linearGradient id="paint9_linear_0_1376" x1="64.1227" y1="69.2071" x2="62.7222" y2="71.3706" gradientUnits="userSpaceOnUse">
<stop offset="0.161458" stop-color="#FFF9C0"/>
<stop offset="0.65625" stop-color="#FFBA41"/>
</linearGradient>
<linearGradient id="paint10_linear_0_1376" x1="78.7433" y1="82.8762" x2="70.1897" y2="96.0892" gradientUnits="userSpaceOnUse">
<stop stop-color="#FFBA41"/>
<stop offset="1" stop-color="#694402" stop-opacity="0.75"/>
</linearGradient>
<linearGradient id="paint11_linear_0_1376" x1="36.1723" y1="56.5801" x2="33.5639" y2="60.6095" gradientUnits="userSpaceOnUse">
<stop stop-color="#FFBA41"/>
<stop offset="1" stop-color="#694402" stop-opacity="0.75"/>
</linearGradient>
<linearGradient id="paint12_linear_0_1376" x1="61.3919" y1="74.1691" x2="58.2092" y2="79.0855" gradientUnits="userSpaceOnUse">
<stop offset="0.161458" stop-color="#FFF9C0"/>
<stop offset="0.65625" stop-color="#FFBA41"/>
</linearGradient>
<linearGradient id="paint13_linear_0_1376" x1="85.4903" y1="91.6992" x2="82.6645" y2="96.0643" gradientUnits="userSpaceOnUse">
<stop stop-color="#FFBA41"/>
<stop offset="1" stop-color="#694402" stop-opacity="0.75"/>
</linearGradient>
<linearGradient id="paint14_linear_0_1376" x1="56.4605" y1="82.4366" x2="53.5413" y2="86.946" gradientUnits="userSpaceOnUse">
<stop offset="0.161458" stop-color="#FFF9C0"/>
<stop offset="0.65625" stop-color="#FFBA41"/>
</linearGradient>
<linearGradient id="paint15_linear_0_1376" x1="31.4968" y1="72.1487" x2="25.481" y2="81.4415" gradientUnits="userSpaceOnUse">
<stop stop-color="#FFBA41"/>
<stop offset="1" stop-color="#694402" stop-opacity="0.75"/>
</linearGradient>
<linearGradient id="paint16_linear_0_1376" x1="75.4435" y1="101.075" x2="70.8733" y2="108.135" gradientUnits="userSpaceOnUse">
<stop stop-color="#FFBA41"/>
<stop offset="1" stop-color="#694402" stop-opacity="0.75"/>
</linearGradient>
<linearGradient id="paint17_linear_0_1376" x1="50.924" y1="90.7648" x2="47.7629" y2="95.6478" gradientUnits="userSpaceOnUse">
<stop offset="0.161458" stop-color="#FFF9C0"/>
<stop offset="0.65625" stop-color="#FFBA41"/>
</linearGradient>
<linearGradient id="paint18_linear_0_1376" x1="71.8578" y1="44.1632" x2="69.5775" y2="47.6855" gradientUnits="userSpaceOnUse">
<stop stop-color="#FFBA41"/>
<stop offset="1" stop-color="#694402" stop-opacity="0.75"/>
</linearGradient>
<linearGradient id="paint19_linear_0_1376" x1="88.8782" y1="55.8916" x2="85.4002" y2="61.2641" gradientUnits="userSpaceOnUse">
<stop stop-color="#FFBA41"/>
<stop offset="1" stop-color="#694402" stop-opacity="0.75"/>
</linearGradient>
<linearGradient id="paint20_linear_0_1376" x1="81.3008" y1="51.7724" x2="80.3516" y2="53.2386" gradientUnits="userSpaceOnUse">
<stop stop-color="#FFBA41"/>
<stop offset="1" stop-color="#694402" stop-opacity="0.75"/>
</linearGradient>
<linearGradient id="paint21_linear_0_1376" x1="47.9289" y1="49.2765" x2="45.5674" y2="52.9244" gradientUnits="userSpaceOnUse">
<stop stop-color="#FFBA41"/>
<stop offset="1" stop-color="#694402" stop-opacity="0.75"/>
</linearGradient>
<linearGradient id="paint22_linear_0_1376" x1="46.4201" y1="61.9394" x2="38.736" y2="73.8093" gradientUnits="userSpaceOnUse">
<stop stop-color="#FFBA41"/>
<stop offset="1" stop-color="#694402" stop-opacity="0.75"/>
</linearGradient>
<clipPath id="clip0_0_1376">
<rect width="106" height="88.93" fill="white" transform="translate(48.3274 0.871826) rotate(32.9175)"/>
</clipPath>
</defs>
</svg>
