<svg width="480" height="420" viewBox="0 0 480 420" fill="none" xmlns="http://www.w3.org/2000/svg">
<g filter="url(#filter0_d_211_1193)">
<path d="M319.885 189.656L318.18 185.492L306.533 190.26L318.563 193.958L319.885 189.656ZM352.054 204L349.739 207.859L352.054 204ZM349.803 177.408L351.508 181.572L349.803 177.408ZM385.389 112.857L380.957 113.638L385.389 112.857ZM317.352 65.2167L318.133 69.6483L317.352 65.2167ZM296.889 72.9568L293.58 76.0066L296.086 78.7255L299.239 76.7943L296.889 72.9568ZM220.062 64.7102L217.481 61.0241L220.062 64.7102ZM199.581 135.518L203.731 133.779L199.581 135.518ZM223.794 193.3L225.438 197.489L229.723 195.807L227.944 191.561L223.794 193.3ZM209.409 199.871L205.71 202.434L207.975 205.703L211.497 203.857L209.409 199.871ZM176.044 176.154L171.548 176.338L171.682 179.619L174.848 180.492L176.044 176.154ZM175.425 166.588L179.907 166.189V166.189L175.425 166.588ZM170.111 139.116L165.882 140.653V140.653L170.111 139.116ZM159.281 116.385L158.792 111.911L152.002 112.655L155.365 118.6L159.281 116.385ZM143.554 118.5L141.974 114.287H141.974L143.554 118.5ZM155.512 116.605L155.35 112.108H155.35L155.512 116.605ZM156.79 116.556L160.697 114.323L159.337 111.943L156.598 112.06L156.79 116.556ZM156.827 116.621L160.734 114.388L160.734 114.387L156.827 116.621ZM167.997 139.884L172.226 138.347L167.997 139.884ZM173.184 166.787L168.701 167.186L173.184 166.787ZM173.767 175.574L172.743 179.956L178.526 181.308L178.263 175.375L173.767 175.574ZM116.169 193.084L112.352 195.467L115.458 200.443L119.46 196.153L116.169 193.084ZM114.499 190.453L110.718 192.892L114.499 190.453ZM99.3945 170.253L102.758 167.263H102.758L99.3945 170.253ZM75.5887 157.349L74.4486 161.702H74.4486L75.5887 157.349ZM73.3866 156.805L69.3511 154.814L66.8408 159.902L72.3665 161.188L73.3866 156.805ZM73.602 156.368L77.6378 158.359L77.6378 158.359L73.602 156.368ZM63.0221 129.503L64.4451 133.772L63.0221 129.503ZM43.5221 149.003L48.0024 149.423L43.5221 149.003ZM72.3585 158.878L73.3505 154.488L69.9125 153.711L68.3346 156.863L72.3585 158.878ZM75.0186 159.526L76.1588 155.173L76.1587 155.173L75.0186 159.526ZM97.7128 171.747L94.3495 174.737L94.3495 174.737L97.7128 171.747ZM112.608 191.672L116.39 189.233L116.39 189.233L112.608 191.672ZM114.604 194.828L118.012 197.768L120.17 195.266L118.429 192.458L114.604 194.828ZM191.122 285.34L194.359 282.214L191.862 279.629L188.789 281.493L191.122 285.34ZM202.054 294L204.369 290.141L202.054 294ZM217.16 301.904L221.057 304.154L223.544 299.846L219.01 297.802L217.16 301.904ZM207.795 318.125L211.692 320.375L211.692 320.375L207.795 318.125ZM207.695 318.299L203.798 316.049L203.597 316.396L203.461 316.774L207.695 318.299ZM207.627 318.488L203.393 316.962L203.393 316.963L207.627 318.488ZM196.133 350.395L200.367 351.92L196.133 350.395ZM197.487 353.274L195.962 357.508H195.962L197.487 353.274ZM200.367 351.92L196.133 350.395L196.133 350.395L200.367 351.92ZM211.792 320.201L207.895 317.951L207.695 318.299L207.559 318.676L211.792 320.201ZM221.319 303.702L223.04 299.544L219.394 298.035L217.421 301.452L221.319 303.702ZM237.215 309.229L241.698 309.621L242.022 305.916L238.445 304.9L237.215 309.229ZM235.721 326.3L231.239 325.908L231.239 325.909L235.721 326.3ZM235.704 326.5L231.221 326.108L231.186 326.508L231.222 326.907L235.704 326.5ZM235.722 326.7L231.241 327.107L231.241 327.107L235.722 326.7ZM238.79 360.475L243.272 360.068L238.79 360.475ZM241.234 362.513L240.827 358.031H240.827L241.234 362.513ZM243.272 360.068L247.753 359.661L243.272 360.068ZM240.222 326.493L235.739 326.101L235.704 326.5L235.74 326.9L240.222 326.493ZM241.629 310.408L242.722 306.043L237.606 304.761L237.146 310.016L241.629 310.408ZM262.755 314.072L267.186 313.29L266.594 309.928L263.196 309.593L262.755 314.072ZM265.682 330.674L270.114 329.892L270.114 329.892L265.682 330.674ZM265.717 330.871L261.285 331.653L261.355 332.048L261.493 332.424L265.717 330.871ZM265.786 331.06L261.563 332.613L261.563 332.613L265.786 331.06ZM277.491 362.89L273.268 364.443L273.268 364.443L277.491 362.89ZM280.38 364.225L281.933 368.449H281.933L280.38 364.225ZM281.715 361.337L277.491 362.89L277.491 362.89L281.715 361.337ZM270.079 329.695L265.647 330.476L265.717 330.871L265.856 331.248L270.079 329.695ZM267.392 314.454L267.689 309.964L261.963 309.584L262.96 315.235L267.392 314.454ZM292.567 313.947L296.739 312.261L295.466 309.112L292.088 309.473L292.567 313.947ZM299.188 330.336L303.36 328.65H303.36L299.188 330.336ZM299.263 330.522L295.091 332.208L295.241 332.58L295.455 332.919L299.263 330.522ZM299.37 330.692L303.178 328.294L303.178 328.294L299.37 330.692ZM317.437 359.393L313.629 361.79V361.79L317.437 359.393ZM321.246 356.995L325.054 354.598L325.054 354.598L321.246 356.995ZM303.285 328.464L299.113 330.15L299.263 330.522L299.477 330.861L303.285 328.464ZM297.19 313.378L296.569 308.921L290.857 309.717L293.018 315.064L297.19 313.378ZM313.249 310.213L316.936 307.632L315.149 305.081L312.133 305.853L313.249 310.213ZM323.921 325.453L327.607 322.872L327.607 322.872L323.921 325.453ZM324.036 325.618L320.35 328.198L320.58 328.527L320.865 328.81L324.036 325.618ZM324.178 325.759L327.35 322.566L327.35 322.566L324.178 325.759ZM348.239 349.66L345.068 352.853L345.068 352.853L348.239 349.66ZM351.41 346.468L354.582 343.275L351.41 346.468ZM327.492 322.708L323.806 325.289L324.036 325.618L324.321 325.9L327.492 322.708ZM317.859 308.951L316.6 304.63L310.571 306.388L314.173 311.532L317.859 308.951ZM335.275 302.646L338.457 299.464L336.289 297.295L333.477 298.52L335.275 302.646ZM349.671 317.042L346.489 320.224L346.773 320.507L347.102 320.736L349.671 317.042ZM349.836 317.156L352.405 313.461L352.405 313.461L349.836 317.156ZM377.681 336.516L375.113 340.211L375.113 340.211L377.681 336.516ZM380.813 335.953L377.118 333.384L377.118 333.384L380.813 335.953ZM380.25 332.822L377.681 336.516L380.25 332.822ZM352.57 313.576L349.388 316.758L349.671 317.042L350.001 317.271L352.57 313.576ZM339.647 300.654L337.714 296.59L331.958 299.328L336.465 303.836L339.647 300.654ZM352.054 294L354.369 297.859L352.054 294ZM376.289 260.457L374.673 256.257L372.415 257.126L371.895 259.489L376.289 260.457ZM402.417 250.4L404.034 254.6V254.6L402.417 250.4ZM402.417 247.6L404.034 243.4V243.4L402.417 247.6ZM376.289 237.544L371.895 238.511L372.415 240.874L374.673 241.743L376.289 237.544ZM318.563 193.958C329.341 197.27 339.814 201.904 349.739 207.859L354.369 200.141C343.814 193.808 332.673 188.879 321.207 185.355L318.563 193.958ZM348.098 173.243L318.18 185.492L321.59 193.821L351.508 181.572L348.098 173.243ZM380.957 113.638C385.387 138.762 371.707 163.577 348.098 173.243L351.508 181.572C379.035 170.302 394.986 141.369 389.821 112.075L380.957 113.638ZM318.133 69.6483C347.629 64.4474 375.756 84.1424 380.957 113.638L389.821 112.075C383.757 77.6845 350.961 54.721 316.57 60.7851L318.133 69.6483ZM299.239 76.7943C304.9 73.3268 311.272 70.8581 318.133 69.6483L316.57 60.7851C308.579 62.1941 301.145 65.0728 294.538 69.1194L299.239 76.7943ZM222.643 68.3964C245.145 52.6401 275.463 56.3508 293.58 76.0066L300.197 69.907C279.067 46.982 243.724 42.6483 217.481 61.0241L222.643 68.3964ZM203.731 133.779C193.872 110.249 201.745 83.0293 222.643 68.3964L217.481 61.0241C193.115 78.0853 183.935 109.823 195.431 137.257L203.731 133.779ZM227.944 191.561L203.731 133.779L195.431 137.257L219.643 195.04L227.944 191.561ZM211.497 203.857C216.053 201.469 220.708 199.347 225.438 197.489L222.149 189.112C217.116 191.088 212.165 193.345 207.32 195.885L211.497 203.857ZM174.848 180.492C187.527 183.989 198.398 191.88 205.71 202.434L213.108 197.308C204.621 185.059 191.996 175.886 177.24 171.816L174.848 180.492ZM170.942 166.986C171.264 170.606 171.446 173.842 171.548 176.338L180.54 175.97C180.433 173.36 180.244 169.979 179.907 166.189L170.942 166.986ZM165.882 140.653C168.728 148.479 170.199 158.624 170.942 166.986L179.907 166.189C179.146 157.627 177.598 146.535 174.34 137.578L165.882 140.653ZM155.365 118.6C158.971 124.977 163.107 133.021 165.882 140.653L174.34 137.578C171.318 129.267 166.908 120.728 163.198 114.169L155.365 118.6ZM161.554 108C161.554 110.73 160.975 111.318 160.96 111.334C160.92 111.376 160.587 111.715 158.792 111.911L159.771 120.858C162.114 120.602 165.167 119.967 167.478 117.54C169.815 115.086 170.554 111.708 170.554 108H161.554ZM140.554 91.5001C144.487 91.5001 149.966 93.183 154.427 96.3497C158.869 99.503 161.554 103.551 161.554 108H170.554C170.554 99.5964 165.459 93.1444 159.637 89.0109C153.833 84.8907 146.562 82.5001 140.554 82.5001V91.5001ZM125.554 103.5C125.554 100.592 127.082 97.6528 129.933 95.309C132.785 92.9645 136.657 91.5001 140.554 91.5001V82.5001C134.509 82.5001 128.631 84.7292 124.218 88.3566C119.805 91.9846 116.554 97.2951 116.554 103.5H125.554ZM141.974 114.287C137.62 115.919 133.61 114.894 130.548 112.538C127.339 110.07 125.554 106.435 125.554 103.5H116.554C116.554 109.678 120.018 115.793 125.06 119.671C130.247 123.662 137.487 125.581 145.134 122.714L141.974 114.287ZM155.35 112.108C151.878 112.233 147.064 112.378 141.974 114.287L145.134 122.714C148.684 121.382 152.122 121.23 155.674 121.102L155.35 112.108ZM156.598 112.06C156.2 112.077 155.789 112.092 155.35 112.108L155.674 121.102C156.107 121.086 156.549 121.07 156.983 121.052L156.598 112.06ZM160.734 114.387L160.697 114.323L152.884 118.789L152.921 118.854L160.734 114.387ZM172.226 138.347C169.13 129.833 164.522 121.016 160.734 114.388L152.92 118.853C156.607 125.306 160.928 133.612 163.768 141.422L172.226 138.347ZM177.666 166.389C176.909 157.877 175.38 147.021 172.226 138.347L163.768 141.422C166.511 148.965 167.962 158.872 168.701 167.186L177.666 166.389ZM178.263 175.375C178.153 172.899 177.97 169.812 177.666 166.389L168.701 167.186C168.992 170.454 169.167 173.406 169.272 175.774L178.263 175.375ZM160.054 178.5C164.425 178.5 168.672 179.004 172.743 179.956L174.792 171.192C170.054 170.085 165.119 169.5 160.054 169.5V178.5ZM119.46 196.153C129.597 185.286 144.029 178.5 160.054 178.5V169.5C141.431 169.5 124.646 177.398 112.878 190.015L119.46 196.153ZM110.718 192.892C111.3 193.795 111.846 194.656 112.352 195.467L119.986 190.701C119.458 189.855 118.888 188.955 118.28 188.013L110.718 192.892ZM96.0312 173.242C101.873 179.814 107.018 187.157 110.718 192.892L118.28 188.013C114.447 182.071 109.022 174.31 102.758 167.263L96.0312 173.242ZM74.4486 161.702C82.1279 163.714 90.7051 167.25 96.0312 173.242L102.758 167.263C95.6346 159.249 84.9297 155.144 76.7288 152.996L74.4486 161.702ZM72.3665 161.188C73.0462 161.346 73.7415 161.517 74.4486 161.702L76.7288 152.996C75.9382 152.789 75.1627 152.598 74.4068 152.422L72.3665 161.188ZM69.5662 154.378C69.4939 154.524 69.4222 154.67 69.3511 154.814L77.4222 158.796C77.4936 158.651 77.5655 158.505 77.6378 158.359L69.5662 154.378ZM70.9972 151.49C70.4926 152.499 70.0162 153.465 69.5662 154.378L77.6378 158.359C78.0892 157.444 78.555 156.499 79.047 155.515L70.9972 151.49ZM64.4451 133.772C65.8625 133.299 66.9985 133.479 68.0002 134.031C69.1017 134.637 70.263 135.836 71.1745 137.682C73.0189 141.418 73.3373 146.81 70.9972 151.49L79.047 155.515C82.7069 148.195 82.2753 139.837 79.2447 133.698C77.7187 130.607 75.4112 127.837 72.3409 126.147C69.1707 124.401 65.4317 123.956 61.5991 125.234L64.4451 133.772ZM48.0024 149.423C48.41 145.077 50.1137 142.119 52.7167 139.798C55.4697 137.342 59.4 135.454 64.4451 133.772L61.5991 125.234C56.1442 127.052 50.8404 129.412 46.7264 133.081C42.4623 136.884 39.666 141.926 39.0417 148.583L48.0024 149.423ZM57.0221 167.003C54.1315 167.003 51.827 165.454 50.1298 162.265C48.3696 158.957 47.5493 154.255 48.0024 149.423L39.0417 148.583C38.463 154.754 39.4222 161.301 42.1846 166.493C45.0101 171.802 49.9715 176.003 57.0221 176.003V167.003ZM68.3346 156.863C66.1812 161.164 64.751 163.581 63.1707 165.048C61.901 166.227 60.296 167.003 57.0221 167.003V176.003C62.0738 176.003 66.0301 174.674 69.2939 171.644C72.2469 168.903 74.3221 165.007 76.3824 160.892L68.3346 156.863ZM76.1587 155.173C75.1972 154.921 74.2584 154.693 73.3505 154.488L71.3665 163.267C72.1815 163.451 73.0212 163.654 73.8785 163.879L76.1587 155.173ZM101.076 168.758C94.4021 161.249 84.229 157.286 76.1588 155.173L73.8785 163.879C81.428 165.856 89.4729 169.251 94.3495 174.737L101.076 168.758ZM116.39 189.233C112.59 183.343 107.234 175.686 101.076 168.758L94.3495 174.737C100.086 181.19 105.16 188.429 108.827 194.112L116.39 189.233ZM118.429 192.458C117.81 191.459 117.129 190.378 116.39 189.233L108.827 194.112C109.535 195.209 110.187 196.243 110.779 197.199L118.429 192.458ZM104.554 234C104.554 220.149 109.622 207.493 118.012 197.768L111.197 191.889C101.452 203.186 95.5541 217.91 95.5541 234H104.554ZM160.054 289.5C129.402 289.5 104.554 264.652 104.554 234H95.5541C95.5541 269.622 124.432 298.5 160.054 298.5V289.5ZM188.789 281.493C180.41 286.574 170.581 289.5 160.054 289.5V298.5C172.272 298.5 183.71 295.098 193.456 289.188L188.789 281.493ZM204.369 290.141C200.555 287.853 197.221 285.177 194.359 282.214L187.886 288.467C191.297 291.998 195.251 295.166 199.739 297.859L204.369 290.141ZM219.01 297.802C214.022 295.553 209.133 292.999 204.369 290.141L199.739 297.859C204.804 300.898 210.004 303.614 215.311 306.006L219.01 297.802ZM211.692 320.375L221.057 304.154L213.263 299.654L203.898 315.875L211.692 320.375ZM211.592 320.549L211.692 320.375L203.898 315.875L203.798 316.049L211.592 320.549ZM211.86 320.013L211.928 319.824L203.461 316.774L203.393 316.962L211.86 320.013ZM200.367 351.92L211.86 320.013L203.393 316.963L191.899 348.87L200.367 351.92ZM199.013 349.041C200.182 349.462 200.788 350.751 200.367 351.92L191.899 348.87C190.636 352.377 192.455 356.245 195.962 357.508L199.013 349.041ZM196.133 350.395C196.554 349.226 197.843 348.619 199.012 349.041L195.962 357.508C199.47 358.771 203.337 356.952 204.601 353.445L196.133 350.395ZM207.559 318.676L196.133 350.395L204.601 353.445L216.026 321.726L207.559 318.676ZM217.421 301.452L207.895 317.951L215.689 322.451L225.216 305.952L217.421 301.452ZM238.445 304.9C233.235 303.42 228.091 301.635 223.04 299.544L219.597 307.859C224.971 310.084 230.443 311.983 235.986 313.557L238.445 304.9ZM240.204 326.693L241.698 309.621L232.732 308.836L231.239 325.908L240.204 326.693ZM240.187 326.892L240.204 326.692L231.239 325.909L231.221 326.108L240.187 326.892ZM240.204 326.293L240.186 326.093L231.222 326.907L231.241 327.107L240.204 326.293ZM243.272 360.068L240.204 326.293L231.241 327.107L234.309 360.882L243.272 360.068ZM240.827 358.031C242.065 357.919 243.159 358.831 243.272 360.068L234.309 360.882C234.646 364.595 237.929 367.331 241.642 366.994L240.827 358.031ZM238.79 360.475C238.678 359.238 239.59 358.143 240.827 358.031L241.641 366.994C245.354 366.657 248.09 363.374 247.753 359.661L238.79 360.475ZM235.74 326.9L238.79 360.475L247.753 359.661L244.703 326.086L235.74 326.9ZM237.146 310.016L235.739 326.101L244.705 326.885L246.112 310.8L237.146 310.016ZM263.196 309.593C256.313 308.916 249.469 307.732 242.722 306.043L240.536 314.773C247.714 316.57 254.993 317.829 262.314 318.55L263.196 309.593ZM270.114 329.892L267.186 313.29L258.323 314.853L261.251 331.455L270.114 329.892ZM270.149 330.09L270.114 329.892L261.251 331.455L261.285 331.653L270.149 330.09ZM270.01 329.507L269.941 329.318L261.493 332.424L261.563 332.613L270.01 329.507ZM281.715 361.337L270.01 329.507L261.563 332.613L273.268 364.443L281.715 361.337ZM278.827 360.002C279.993 359.573 281.286 360.171 281.715 361.337L273.268 364.443C274.555 367.942 278.434 369.735 281.933 368.449L278.827 360.002ZM277.491 362.89C277.062 361.724 277.66 360.431 278.827 360.002L281.933 368.449C285.432 367.162 287.225 363.283 285.938 359.784L277.491 362.89ZM265.856 331.248L277.491 362.89L285.938 359.784L274.303 328.142L265.856 331.248ZM262.96 315.235L265.647 330.476L274.511 328.913L271.823 313.672L262.96 315.235ZM292.088 309.473C283.982 310.339 275.818 310.503 267.689 309.964L267.094 318.944C275.739 319.517 284.423 319.343 293.045 318.422L292.088 309.473ZM303.36 328.65L296.739 312.261L288.394 315.633L295.016 332.022L303.36 328.65ZM303.436 328.836L303.36 328.65L295.016 332.022L295.091 332.208L303.436 328.836ZM303.178 328.294L303.071 328.125L295.455 332.919L295.562 333.089L303.178 328.294ZM321.246 356.995L303.178 328.294L295.562 333.089L313.629 361.79L321.246 356.995ZM318.143 356.29C319.194 355.628 320.584 355.944 321.246 356.995L313.629 361.79C315.615 364.945 319.783 365.892 322.937 363.907L318.143 356.29ZM317.437 359.393C316.775 358.341 317.091 356.952 318.143 356.29L322.937 363.907C326.092 361.921 327.04 357.753 325.054 354.598L317.437 359.393ZM299.477 330.861L317.437 359.393L325.054 354.598L307.094 326.067L299.477 330.861ZM293.018 315.064L299.113 330.15L307.458 326.778L301.362 311.692L293.018 315.064ZM312.133 305.853C306.994 307.17 301.797 308.193 296.569 308.921L297.811 317.835C303.372 317.06 308.9 315.973 314.366 314.572L312.133 305.853ZM327.607 322.872L316.936 307.632L309.563 312.794L320.235 328.034L327.607 322.872ZM327.722 323.037L327.607 322.872L320.235 328.034L320.35 328.198L327.722 323.037ZM327.35 322.566L327.207 322.425L320.865 328.81L321.007 328.952L327.35 322.566ZM351.41 346.468L327.35 322.566L321.007 328.951L345.068 352.853L351.41 346.468ZM348.228 346.478C349.104 345.597 350.529 345.592 351.41 346.468L345.068 352.853C347.712 355.48 351.986 355.466 354.613 352.821L348.228 346.478ZM348.239 349.66C347.357 348.784 347.353 347.36 348.228 346.478L354.613 352.821C357.241 350.176 357.226 345.902 354.582 343.275L348.239 349.66ZM324.321 325.9L348.239 349.66L354.582 343.275L330.664 319.515L324.321 325.9ZM314.173 311.532L323.806 325.289L331.178 320.127L321.545 306.369L314.173 311.532ZM333.477 298.52C327.957 300.927 322.319 302.963 316.6 304.63L319.119 313.271C325.203 311.497 331.2 309.33 337.073 306.771L333.477 298.52ZM352.711 313.718L338.457 299.464L332.093 305.828L346.347 320.082L352.711 313.718ZM352.853 313.86L352.711 313.718L346.347 320.082L346.489 320.224L352.853 313.86ZM352.405 313.461L352.24 313.347L347.102 320.736L347.267 320.851L352.405 313.461ZM380.25 332.822L352.405 313.461L347.267 320.851L375.113 340.211L380.25 332.822ZM377.118 333.384C377.828 332.364 379.23 332.112 380.25 332.822L375.113 340.211C378.173 342.339 382.38 341.583 384.508 338.522L377.118 333.384ZM377.681 336.516C376.661 335.807 376.409 334.405 377.118 333.384L384.508 338.522C386.636 335.461 385.88 331.255 382.819 329.127L377.681 336.516ZM350.001 317.271L377.681 336.516L382.819 329.127L355.138 309.881L350.001 317.271ZM336.465 303.836L349.388 316.758L355.752 310.394L342.829 297.472L336.465 303.836ZM349.739 290.141C345.811 292.498 341.798 294.647 337.714 296.59L341.58 304.717C345.924 302.651 350.193 300.365 354.369 297.859L349.739 290.141ZM371.895 259.489C369.223 271.628 361.857 282.87 349.739 290.141L354.369 297.859C368.718 289.25 377.509 275.855 380.684 261.424L371.895 259.489ZM400.801 246.2L374.673 256.257L377.906 264.656L404.034 254.6L400.801 246.2ZM400.801 251.8C398.238 250.813 398.238 247.187 400.801 246.2L404.034 254.6C409.16 252.626 409.16 245.374 404.034 243.4L400.801 251.8ZM374.673 241.743L400.801 251.8L404.034 243.4L377.906 233.344L374.673 241.743ZM349.739 207.859C361.857 215.13 369.223 226.372 371.895 238.511L380.684 236.576C377.509 222.145 368.718 208.75 354.369 200.141L349.739 207.859Z" fill="white"/>
</g>
<g filter="url(#filter1_ii_211_1193)">
<path d="M199.581 135.518L226.63 200.069C228.437 204.381 232.311 207.477 236.915 208.289C241.518 209.101 246.218 207.516 249.39 204.083L296.886 152.675C315.635 132.382 317.705 101.765 301.858 79.1331C283.253 52.563 246.632 46.1056 220.062 64.7102C197.43 80.5573 188.903 110.036 199.581 135.518Z" fill="#E1E1E1"/>
</g>
<g filter="url(#filter2_ii_211_1193)">
<path d="M268.865 120.735L266.1 190.67C265.915 195.341 268.118 199.785 271.947 202.466C275.776 205.147 280.705 205.697 285.031 203.926L349.803 177.408C375.371 166.94 390.187 140.066 385.389 112.857C379.756 80.9136 349.295 59.5843 317.352 65.2168C290.143 70.0144 269.957 93.1277 268.865 120.735Z" fill="#E1E1E1"/>
</g>
<path d="M119.554 201C119.554 201 110.554 184.5 98.5536 171C86.5536 157.5 61.0536 156 61.0536 156" stroke="black" stroke-width="2.25"/>
<path d="M175.054 181.5C175.054 181.5 175.054 156 169.054 139.5C163.054 123 151.054 105 151.054 105" stroke="black" stroke-width="2.25"/>
<path d="M198.25 351.157L209.743 319.25L226.054 291" stroke="black" stroke-width="4.5" stroke-linecap="round"/>
<path d="M241.031 360.272L237.963 326.497L240.806 294" stroke="black" stroke-width="4.5" stroke-linecap="round"/>
<path d="M279.603 362.113L267.898 330.283L262.233 298.158" stroke="black" stroke-width="4.5" stroke-linecap="round"/>
<path d="M319.341 358.194L301.274 329.493L289.054 299.248" stroke="black" stroke-width="4.5" stroke-linecap="round"/>
<path d="M349.825 348.064L325.764 324.163L307.054 297.441" stroke="black" stroke-width="4.5" stroke-linecap="round"/>
<path d="M378.966 334.669L351.12 315.309L328.054 292.242" stroke="black" stroke-width="4.5" stroke-linecap="round"/>
<g filter="url(#filter3_ii_211_1193)">
<path d="M202.054 294C248.218 321.698 305.89 321.698 352.054 294C386.026 273.617 386.026 224.383 352.054 204C305.89 176.302 248.218 176.302 202.054 204C168.083 224.383 168.083 273.617 202.054 294Z" fill="#FF9600"/>
<mask id="mask0_211_1193" style="mask-type:alpha" maskUnits="userSpaceOnUse" x="176" y="183" width="202" height="132">
<path d="M202.054 294C248.218 321.698 305.89 321.698 352.054 294C386.026 273.617 386.026 224.383 352.054 204C305.89 176.302 248.218 176.302 202.054 204C168.083 224.383 168.083 273.617 202.054 294Z" fill="#DC1E00"/>
</mask>
<g mask="url(#mask0_211_1193)">
<mask id="path-14-inside-1_211_1193" fill="white">
<path d="M187.054 324H217.054V174H187.054V324Z"/>
</mask>
<path d="M217.054 324V354H247.054V324H217.054ZM187.054 324H157.054V354H187.054V324ZM187.054 174V144H157.054V174H187.054ZM217.054 174H247.054V144H217.054V174ZM217.054 294H187.054V354H217.054V294ZM217.054 324V174H157.054V324H217.054ZM187.054 204H217.054V144H187.054V204ZM187.054 174V324H247.054V174H187.054Z" fill="black" mask="url(#path-14-inside-1_211_1193)"/>
<mask id="path-16-inside-2_211_1193" fill="white">
<path d="M247.054 324H277.054V174H247.054V324Z"/>
</mask>
<path d="M277.054 324V354H307.054V324H277.054ZM247.054 324H217.054V354H247.054V324ZM247.054 174V144H217.054V174H247.054ZM277.054 174H307.054V144H277.054V174ZM277.054 294H247.054V354H277.054V294ZM277.054 324V174H217.054V324H277.054ZM247.054 204H277.054V144H247.054V204ZM247.054 174V324H307.054V174H247.054Z" fill="black" mask="url(#path-16-inside-2_211_1193)"/>
<mask id="path-18-inside-3_211_1193" fill="white">
<path d="M307.054 324H337.054V174H307.054V324Z"/>
</mask>
<path d="M337.054 324V354H367.054V324H337.054ZM307.054 324H277.054V354H307.054V324ZM307.054 174V144H277.054V174H307.054ZM337.054 174H367.054V144H337.054V174ZM337.054 294H307.054V354H337.054V294ZM337.054 324V174H277.054V324H337.054ZM307.054 204H337.054V144H307.054V204ZM307.054 174V324H367.054V174H307.054Z" fill="black" mask="url(#path-18-inside-3_211_1193)"/>
<mask id="path-20-inside-4_211_1193" fill="white">
<path d="M367.054 324H397.054V174H367.054V324Z"/>
</mask>
<path d="M397.054 324V354H427.054V324H397.054ZM367.054 324H337.054V354H367.054V324ZM367.054 174V144H337.054V174H367.054ZM397.054 174H427.054V144H397.054V174ZM397.054 294H367.054V354H397.054V294ZM397.054 324V174H337.054V324H397.054ZM367.054 204H397.054V144H367.054V204ZM367.054 174V324H427.054V174H367.054Z" fill="black" mask="url(#path-20-inside-4_211_1193)"/>
</g>
<path d="M402.417 247.6C403.699 248.093 403.699 249.907 402.417 250.4L374.343 261.206C373.361 261.584 372.304 260.859 372.304 259.806V238.194C372.304 237.141 373.361 236.416 374.343 236.794L402.417 247.6Z" fill="black"/>
</g>
<path fill-rule="evenodd" clip-rule="evenodd" d="M379.608 238.821C380.841 245.542 380.841 252.457 379.608 259.179L376.289 260.456C377.947 252.922 377.947 245.077 376.289 237.543L379.608 238.821Z" fill="white"/>
<g filter="url(#filter4_ii_211_1193)">
<circle cx="160.054" cy="234" r="60" fill="#FF9600"/>
</g>
<path d="M153.944 244.183C153.944 244.183 157.79 239.878 160.172 240.003C162.553 240.128 165.928 244.811 165.928 244.811" stroke="black" stroke-width="1.5" stroke-linecap="round" stroke-linejoin="round"/>
<path d="M148.188 260.375C148.188 260.375 153.944 265.183 159.936 265.497C165.928 265.811 172.155 261.631 172.155 261.631" stroke="black" stroke-width="1.5" stroke-linecap="round" stroke-linejoin="round"/>
<circle cx="137.554" cy="220.5" r="10.5" fill="black"/>
<g filter="url(#filter5_i_211_1193)">
<circle cx="137.554" cy="220.5" r="6" fill="white"/>
</g>
<circle cx="185.554" cy="223.5" r="10.5" fill="black"/>
<g filter="url(#filter6_i_211_1193)">
<circle cx="185.554" cy="223.5" r="6" fill="white"/>
</g>
<g filter="url(#filter7_ii_211_1193)">
<path d="M166.054 108C166.054 120.853 155.554 114 143.554 118.5C131.554 123 121.054 112.613 121.054 103.5C121.054 94.3874 130.613 87.0001 140.554 87.0001C150.495 87.0001 166.054 95.1474 166.054 108Z" fill="#FF9600"/>
</g>
<g filter="url(#filter8_ii_211_1193)">
<path d="M75.0221 153.503C69.0221 165.503 66.9632 171.503 57.0221 171.503C47.0809 171.503 42.4902 160.006 43.5221 149.003C44.5539 138 52.5221 133.003 63.0221 129.503C73.5221 126.003 81.0221 141.503 75.0221 153.503Z" fill="#FF9600"/>
</g>
<defs>
<filter id="filter0_d_211_1193" x="26.8801" y="40.5833" width="392.998" height="343.282" filterUnits="userSpaceOnUse" color-interpolation-filters="sRGB">
<feFlood flood-opacity="0" result="BackgroundImageFix"/>
<feColorMatrix in="SourceAlpha" type="matrix" values="0 0 0 0 0 0 0 0 0 0 0 0 0 0 0 0 0 0 127 0" result="hardAlpha"/>
<feOffset dy="3"/>
<feGaussianBlur stdDeviation="6"/>
<feColorMatrix type="matrix" values="0 0 0 0 0 0 0 0 0 0 0 0 0 0 0 0 0 0 0.25 0"/>
<feBlend mode="normal" in2="BackgroundImageFix" result="effect1_dropShadow_211_1193"/>
<feBlend mode="normal" in="SourceGraphic" in2="effect1_dropShadow_211_1193" result="shape"/>
</filter>
<filter id="filter1_ii_211_1193" x="186.012" y="45.0839" width="135.468" height="172.414" filterUnits="userSpaceOnUse" color-interpolation-filters="sRGB">
<feFlood flood-opacity="0" result="BackgroundImageFix"/>
<feBlend mode="normal" in="SourceGraphic" in2="BackgroundImageFix" result="shape"/>
<feColorMatrix in="SourceAlpha" type="matrix" values="0 0 0 0 0 0 0 0 0 0 0 0 0 0 0 0 0 0 127 0" result="hardAlpha"/>
<feOffset dx="-9" dy="-9"/>
<feGaussianBlur stdDeviation="7.5"/>
<feComposite in2="hardAlpha" operator="arithmetic" k2="-1" k3="1"/>
<feColorMatrix type="matrix" values="0 0 0 0 0 0 0 0 0 0 0 0 0 0 0 0 0 0 0.3 0"/>
<feBlend mode="normal" in2="shape" result="effect1_innerShadow_211_1193"/>
<feColorMatrix in="SourceAlpha" type="matrix" values="0 0 0 0 0 0 0 0 0 0 0 0 0 0 0 0 0 0 127 0" result="hardAlpha"/>
<feOffset dx="9" dy="9"/>
<feGaussianBlur stdDeviation="7.5"/>
<feComposite in2="hardAlpha" operator="arithmetic" k2="-1" k3="1"/>
<feColorMatrix type="matrix" values="0 0 0 0 1 0 0 0 0 1 0 0 0 0 1 0 0 0 0.3 0"/>
<feBlend mode="normal" in2="effect1_innerShadow_211_1193" result="effect2_innerShadow_211_1193"/>
</filter>
<filter id="filter2_ii_211_1193" x="257.089" y="55.3148" width="138.197" height="158.635" filterUnits="userSpaceOnUse" color-interpolation-filters="sRGB">
<feFlood flood-opacity="0" result="BackgroundImageFix"/>
<feBlend mode="normal" in="SourceGraphic" in2="BackgroundImageFix" result="shape"/>
<feColorMatrix in="SourceAlpha" type="matrix" values="0 0 0 0 0 0 0 0 0 0 0 0 0 0 0 0 0 0 127 0" result="hardAlpha"/>
<feOffset dx="-9" dy="-9"/>
<feGaussianBlur stdDeviation="7.5"/>
<feComposite in2="hardAlpha" operator="arithmetic" k2="-1" k3="1"/>
<feColorMatrix type="matrix" values="0 0 0 0 0 0 0 0 0 0 0 0 0 0 0 0 0 0 0.3 0"/>
<feBlend mode="normal" in2="shape" result="effect1_innerShadow_211_1193"/>
<feColorMatrix in="SourceAlpha" type="matrix" values="0 0 0 0 0 0 0 0 0 0 0 0 0 0 0 0 0 0 127 0" result="hardAlpha"/>
<feOffset dx="9" dy="9"/>
<feGaussianBlur stdDeviation="7.5"/>
<feComposite in2="hardAlpha" operator="arithmetic" k2="-1" k3="1"/>
<feColorMatrix type="matrix" values="0 0 0 0 1 0 0 0 0 1 0 0 0 0 1 0 0 0 0.3 0"/>
<feBlend mode="normal" in2="effect1_innerShadow_211_1193" result="effect2_innerShadow_211_1193"/>
</filter>
<filter id="filter3_ii_211_1193" x="167.576" y="174.226" width="244.803" height="149.548" filterUnits="userSpaceOnUse" color-interpolation-filters="sRGB">
<feFlood flood-opacity="0" result="BackgroundImageFix"/>
<feBlend mode="normal" in="SourceGraphic" in2="BackgroundImageFix" result="shape"/>
<feColorMatrix in="SourceAlpha" type="matrix" values="0 0 0 0 0 0 0 0 0 0 0 0 0 0 0 0 0 0 127 0" result="hardAlpha"/>
<feOffset dx="-9" dy="-9"/>
<feGaussianBlur stdDeviation="7.5"/>
<feComposite in2="hardAlpha" operator="arithmetic" k2="-1" k3="1"/>
<feColorMatrix type="matrix" values="0 0 0 0 0 0 0 0 0 0 0 0 0 0 0 0 0 0 0.3 0"/>
<feBlend mode="normal" in2="shape" result="effect1_innerShadow_211_1193"/>
<feColorMatrix in="SourceAlpha" type="matrix" values="0 0 0 0 0 0 0 0 0 0 0 0 0 0 0 0 0 0 127 0" result="hardAlpha"/>
<feOffset dx="9" dy="9"/>
<feGaussianBlur stdDeviation="7.5"/>
<feComposite in2="hardAlpha" operator="arithmetic" k2="-1" k3="1"/>
<feColorMatrix type="matrix" values="0 0 0 0 1 0 0 0 0 1 0 0 0 0 1 0 0 0 0.3 0"/>
<feBlend mode="normal" in2="effect1_innerShadow_211_1193" result="effect2_innerShadow_211_1193"/>
</filter>
<filter id="filter4_ii_211_1193" x="91.0541" y="165" width="138" height="138" filterUnits="userSpaceOnUse" color-interpolation-filters="sRGB">
<feFlood flood-opacity="0" result="BackgroundImageFix"/>
<feBlend mode="normal" in="SourceGraphic" in2="BackgroundImageFix" result="shape"/>
<feColorMatrix in="SourceAlpha" type="matrix" values="0 0 0 0 0 0 0 0 0 0 0 0 0 0 0 0 0 0 127 0" result="hardAlpha"/>
<feOffset dx="-9" dy="-9"/>
<feGaussianBlur stdDeviation="7.5"/>
<feComposite in2="hardAlpha" operator="arithmetic" k2="-1" k3="1"/>
<feColorMatrix type="matrix" values="0 0 0 0 0 0 0 0 0 0 0 0 0 0 0 0 0 0 0.3 0"/>
<feBlend mode="normal" in2="shape" result="effect1_innerShadow_211_1193"/>
<feColorMatrix in="SourceAlpha" type="matrix" values="0 0 0 0 0 0 0 0 0 0 0 0 0 0 0 0 0 0 127 0" result="hardAlpha"/>
<feOffset dx="9" dy="9"/>
<feGaussianBlur stdDeviation="7.5"/>
<feComposite in2="hardAlpha" operator="arithmetic" k2="-1" k3="1"/>
<feColorMatrix type="matrix" values="0 0 0 0 1 0 0 0 0 1 0 0 0 0 1 0 0 0 0.3 0"/>
<feBlend mode="normal" in2="effect1_innerShadow_211_1193" result="effect2_innerShadow_211_1193"/>
</filter>
<filter id="filter5_i_211_1193" x="131.554" y="214.5" width="12.9" height="12.9" filterUnits="userSpaceOnUse" color-interpolation-filters="sRGB">
<feFlood flood-opacity="0" result="BackgroundImageFix"/>
<feBlend mode="normal" in="SourceGraphic" in2="BackgroundImageFix" result="shape"/>
<feColorMatrix in="SourceAlpha" type="matrix" values="0 0 0 0 0 0 0 0 0 0 0 0 0 0 0 0 0 0 127 0" result="hardAlpha"/>
<feOffset dx="0.9" dy="0.9"/>
<feGaussianBlur stdDeviation="0.525"/>
<feComposite in2="hardAlpha" operator="arithmetic" k2="-1" k3="1"/>
<feColorMatrix type="matrix" values="0 0 0 0 0 0 0 0 0 0 0 0 0 0 0 0 0 0 0.45 0"/>
<feBlend mode="normal" in2="shape" result="effect1_innerShadow_211_1193"/>
</filter>
<filter id="filter6_i_211_1193" x="179.554" y="217.5" width="12.9" height="12.9" filterUnits="userSpaceOnUse" color-interpolation-filters="sRGB">
<feFlood flood-opacity="0" result="BackgroundImageFix"/>
<feBlend mode="normal" in="SourceGraphic" in2="BackgroundImageFix" result="shape"/>
<feColorMatrix in="SourceAlpha" type="matrix" values="0 0 0 0 0 0 0 0 0 0 0 0 0 0 0 0 0 0 127 0" result="hardAlpha"/>
<feOffset dx="0.9" dy="0.9"/>
<feGaussianBlur stdDeviation="0.525"/>
<feComposite in2="hardAlpha" operator="arithmetic" k2="-1" k3="1"/>
<feColorMatrix type="matrix" values="0 0 0 0 0 0 0 0 0 0 0 0 0 0 0 0 0 0 0.45 0"/>
<feBlend mode="normal" in2="shape" result="effect1_innerShadow_211_1193"/>
</filter>
<filter id="filter7_ii_211_1193" x="112.054" y="78.0001" width="63" height="50.5842" filterUnits="userSpaceOnUse" color-interpolation-filters="sRGB">
<feFlood flood-opacity="0" result="BackgroundImageFix"/>
<feBlend mode="normal" in="SourceGraphic" in2="BackgroundImageFix" result="shape"/>
<feColorMatrix in="SourceAlpha" type="matrix" values="0 0 0 0 0 0 0 0 0 0 0 0 0 0 0 0 0 0 127 0" result="hardAlpha"/>
<feOffset dx="-9" dy="-9"/>
<feGaussianBlur stdDeviation="7.5"/>
<feComposite in2="hardAlpha" operator="arithmetic" k2="-1" k3="1"/>
<feColorMatrix type="matrix" values="0 0 0 0 0 0 0 0 0 0 0 0 0 0 0 0 0 0 0.3 0"/>
<feBlend mode="normal" in2="shape" result="effect1_innerShadow_211_1193"/>
<feColorMatrix in="SourceAlpha" type="matrix" values="0 0 0 0 0 0 0 0 0 0 0 0 0 0 0 0 0 0 127 0" result="hardAlpha"/>
<feOffset dx="9" dy="9"/>
<feGaussianBlur stdDeviation="7.5"/>
<feComposite in2="hardAlpha" operator="arithmetic" k2="-1" k3="1"/>
<feColorMatrix type="matrix" values="0 0 0 0 1 0 0 0 0 1 0 0 0 0 1 0 0 0 0.3 0"/>
<feBlend mode="normal" in2="effect1_innerShadow_211_1193" result="effect2_innerShadow_211_1193"/>
</filter>
<filter id="filter8_ii_211_1193" x="34.3799" y="120" width="51.7756" height="60.5027" filterUnits="userSpaceOnUse" color-interpolation-filters="sRGB">
<feFlood flood-opacity="0" result="BackgroundImageFix"/>
<feBlend mode="normal" in="SourceGraphic" in2="BackgroundImageFix" result="shape"/>
<feColorMatrix in="SourceAlpha" type="matrix" values="0 0 0 0 0 0 0 0 0 0 0 0 0 0 0 0 0 0 127 0" result="hardAlpha"/>
<feOffset dx="-9" dy="-9"/>
<feGaussianBlur stdDeviation="7.5"/>
<feComposite in2="hardAlpha" operator="arithmetic" k2="-1" k3="1"/>
<feColorMatrix type="matrix" values="0 0 0 0 0 0 0 0 0 0 0 0 0 0 0 0 0 0 0.3 0"/>
<feBlend mode="normal" in2="shape" result="effect1_innerShadow_211_1193"/>
<feColorMatrix in="SourceAlpha" type="matrix" values="0 0 0 0 0 0 0 0 0 0 0 0 0 0 0 0 0 0 127 0" result="hardAlpha"/>
<feOffset dx="9" dy="9"/>
<feGaussianBlur stdDeviation="7.5"/>
<feComposite in2="hardAlpha" operator="arithmetic" k2="-1" k3="1"/>
<feColorMatrix type="matrix" values="0 0 0 0 1 0 0 0 0 1 0 0 0 0 1 0 0 0 0.3 0"/>
<feBlend mode="normal" in2="effect1_innerShadow_211_1193" result="effect2_innerShadow_211_1193"/>
</filter>
</defs>
</svg>
